<?xml version="1.0" encoding="UTF-8"?>
<mxfile host="app.diagrams.net">
  <diagram name="C1 - Context Diagram">
    <mxGraphModel dx="1500" dy="800" grid="1" gridSize="10" guides="1" tooltips="1" connect="1" arrows="1" fold="1" page="1" pageScale="1" pageWidth="827" pageHeight="1169" math="0" shadow="0">
      <root>
        <mxCell id="0"/>
        <mxCell id="1" parent="0"/>
        
        <!-- External Users -->
        <mxCell id="cust" value="Customer" style="shape=actor;whiteSpace=wrap;html=1;" vertex="1" parent="1">
          <mxGeometry x="40" y="100" width="80" height="60" as="geometry"/>
        </mxCell>
        <mxCell id="owner" value="Restaurant Owner" style="shape=actor;whiteSpace=wrap;html=1;" vertex="1" parent="1">
          <mxGeometry x="40" y="180" width="120" height="60" as="geometry"/>
        </mxCell>
        <mxCell id="dp" value="Delivery Partner" style="shape=actor;whiteSpace=wrap;html=1;" vertex="1" parent="1">
          <mxGeometry x="40" y="260" width="100" height="60" as="geometry"/>
        </mxCell>
        <mxCell id="admin" value="Admin" style="shape=actor;whiteSpace=wrap;html=1;" vertex="1" parent="1">
          <mxGeometry x="40" y="340" width="60" height="60" as="geometry"/>
        </mxCell>

        <!-- Platform -->
        <mxCell id="platform" value="ABC Food Delivery Platform" style="shape=cloud;whiteSpace=wrap;html=1;fillColor=#dae8fc;" vertex="1" parent="1">
          <mxGeometry x="240" y="150" width="280" height="180" as="geometry"/>
        </mxCell>

        <!-- Arrows from actors to platform -->
        <mxCell id="a1" style="endArrow=block;" edge="1" parent="1" source="cust" target="platform"/>
        <mxCell id="a2" style="endArrow=block;" edge="1" parent="1" source="owner" target="platform"/>
        <mxCell id="a3" style="endArrow=block;" edge="1" parent="1" source="dp" target="platform"/>
        <mxCell id="a4" style="endArrow=block;" edge="1" parent="1" source="admin" target="platform"/>

        <!-- External Systems -->
        <mxCell id="sendgrid" value="SendGrid (Email)" style="shape=cube;whiteSpace=wrap;html=1;fillColor=#f8cecc;" vertex="1" parent="1">
          <mxGeometry x="560" y="160" width="140" height="50" as="geometry"/>
        </mxCell>
        <mxCell id="pg" value="Payment Gateway" style="shape=cube;whiteSpace=wrap;html=1;fillColor=#f8cecc;" vertex="1" parent="1">
          <mxGeometry x="560" y="220" width="140" height="50" as="geometry"/>
        </mxCell>

        <mxCell id="arrow-sendgrid" style="endArrow=block;" edge="1" parent="1" source="platform" target="sendgrid"/>
        <mxCell id="arrow-pg" style="endArrow=block;" edge="1" parent="1" source="platform" target="pg"/>
      </root>
    </mxGraphModel>
  </diagram>
  <diagram name="C2 - Container Diagram">
    <mxGraphModel dx="1500" dy="800" grid="1" gridSize="10" guides="1" tooltips="1" connect="1" arrows="1" fold="1" page="1" pageScale="1" pageWidth="827" pageHeight="1169" math="0" shadow="0">
      <root>
        <mxCell id="0"/>
        <mxCell id="1" parent="0"/>

        <!-- UI -->
        <mxCell id="ui" value="Web UI (React/Angular)" style="shape=hexagon;whiteSpace=wrap;html=1;fillColor=#fff2cc;" vertex="1" parent="1">
          <mxGeometry x="40" y="100" width="160" height="80" as="geometry"/>
        </mxCell>

        <!-- API Management -->
        <mxCell id="api" value="Azure API Management" style="shape=process;whiteSpace=wrap;html=1;fillColor=#d5e8d4;" vertex="1" parent="1">
          <mxGeometry x="240" y="100" width="180" height="60" as="geometry"/>
        </mxCell>

        <!-- Azure Functions Container -->
        <mxCell id="functions" value="Microservices (Azure Functions)" style="swimlane;html=1;" vertex="1" parent="1">
          <mxGeometry x="240" y="200" width="500" height="280" as="geometry"/>
        </mxCell>

        <mxCell id="s1" value="IdentityService" style="shape=rectangle;whiteSpace=wrap;html=1;" vertex="1" parent="functions">
          <mxGeometry x="20" y="20" width="140" height="40" as="geometry"/>
        </mxCell>
        <mxCell id="s2" value="CustomerService" style="shape=rectangle;whiteSpace=wrap;html=1;" vertex="1" parent="functions">
          <mxGeometry x="180" y="20" width="140" height="40" as="geometry"/>
        </mxCell>
        <mxCell id="s3" value="RestaurantService" style="shape=rectangle;whiteSpace=wrap;html=1;" vertex="1" parent="functions">
          <mxGeometry x="340" y="20" width="140" height="40" as="geometry"/>
        </mxCell>
        <mxCell id="s4" value="CartService" style="shape=rectangle;whiteSpace=wrap;html=1;" vertex="1" parent="functions">
          <mxGeometry x="20" y="80" width="140" height="40" as="geometry"/>
        </mxCell>
        <mxCell id="s5" value="OrderService" style="shape=rectangle;whiteSpace=wrap;html=1;" vertex="1" parent="functions">
          <mxGeometry x="180" y="80" width="140" height="40" as="geometry"/>
        </mxCell>
        <mxCell id="s6" value="DeliveryService" style="shape=rectangle;whiteSpace=wrap;html=1;" vertex="1" parent="functions">
          <mxGeometry x="340" y="80" width="140" height="40" as="geometry"/>
        </mxCell>

        <!-- Databases -->
        <mxCell id="sql" value="Azure SQL (Relational)" style="shape=cylinder;whiteSpace=wrap;html=1;fillColor=#e1d5e7;" vertex="1" parent="1">
          <mxGeometry x="780" y="240" width="120" height="60" as="geometry"/>
        </mxCell>
        <mxCell id="cosmos" value="Cosmos DB (NoSQL)" style="shape=cylinder;whiteSpace=wrap;html=1;fillColor=#e1d5e7;" vertex="1" parent="1">
          <mxGeometry x="780" y="320" width="120" height="60" as="geometry"/>
        </mxCell>

        <!-- Arrows -->
        <mxCell id="ua1" style="endArrow=block;" edge="1" parent="1" source="ui" target="api"/>
        <mxCell id="ua2" style="endArrow=block;" edge="1" parent="1" source="api" target="functions"/>
        <mxCell id="ua3" style="endArrow=block;" edge="1" parent="1" source="functions" target="sql"/>
        <mxCell id="ua4" style="endArrow=block;" edge="1" parent="1" source="functions" target="cosmos"/>
      </root>
    </mxGraphModel>
  </diagram>
</mxfile>
